# xmcd
#
# Track frame offsets:
#	150
#	12912
#	35247
#	48475
#	67547
#	82735
#	91381
#	109815
#	131725
#
# Disc length: 2140 seconds
#
# Revision: 1
# Processed by: cddbd v1.5.2PL0 Copyright (c) Steve Scherf et al.
# Submitted via: audiograbber 1.83.01
#
DISCID=6b085a09
DTITLE=Scott Albert Johnson - Going Somewhere
DYEAR=2015
DGENRE=Rock and Soul
TTITLE0=Going Somewhere
TTITLE1=If I Only Knew The Words
TTITLE2=Jailbird
TTITLE3=Haunt My Dreams
TTITLE4=All
TTITLE5=A Bigger Gun
TTITLE6=I Don´t Remember
TTITLE7=Simply Human
TTITLE8=Fragments
EXTD=
EXTT0=
EXTT1=
EXTT2=
EXTT3=
EXTT4=
EXTT5=
EXTT6=
EXTT7=
EXTT8=
PLAYORDER=
